<svg xmlns="http://www.w3.org/2000/svg" version="1.1" xmlns:xlink="http://www.w3.org/1999/xlink" xmlns:svgjs="http://svgjs.dev/svgjs" width="1500" height="1500" viewBox="0 0 1500 1500"><rect width="1500" height="1500" fill="#000000"></rect><g transform="matrix(0.6666666666666666,0,0,0.6666666666666666,247.8056881198845,281.2025527426162)"><svg viewBox="0 0 169 158" data-background-color="#ffffff" preserveAspectRatio="xMidYMid meet" height="1402" width="1500" xmlns="http://www.w3.org/2000/svg" xmlns:xlink="http://www.w3.org/1999/xlink"><g id="tight-bounds" transform="matrix(1,0,0,1,0.370838707739523,0.24749999999997385)"><svg viewBox="0 0 168.25832258452095 157.50492331443348" height="157.50492331443348" width="168.25832258452095"><g><svg viewBox="0 0 168.25832258452095 157.50492331443348" height="157.50492331443348" width="168.25832258452095"><g><svg viewBox="0 0 168.25832258452095 157.50492331443348" height="157.50492331443348" width="168.25832258452095"><g><path d="M0 157.505v-157.505h168.258v157.505z" fill="#ffffff" stroke="transparent" stroke-width="0" rx="0%" data-fill-palette-color="tertiary"></path><path d="M3.283 154.222v-150.939h161.692v150.939z" fill="#000000" stroke="transparent" stroke-width="0" rx="0%" data-fill-palette-color="quaternary"></path><path d="M9.85 147.655v-137.805h148.558v137.805z" fill="#ffffff" stroke="transparent" stroke-width="0" data-fill-palette-color="tertiary"></path></g><g transform="matrix(1,0,0,1,19.699740000000013,19.69974)" id="textblocktransform"><svg viewBox="0 0 128.85884258452094 118.10544331443349" height="118.10544331443349" width="128.85884258452094" id="textblock"><g><svg viewBox="0 0 128.85884258452094 100.57561757280003" height="100.57561757280003" width="128.85884258452094"><g transform="matrix(1,0,0,1,0,0)"><svg width="128.85884258452094" viewBox="-0.45 -35.25 54.900000000000006 42.85" height="100.57561757280003" data-palette-color="#ffffff"><path d="M10.2-34.55L10.2-5Q10.2 0.4 7.85 3.18 5.5 5.95 1.25 7.6L1.25 7.6-0.45 3.1Q1.4 2.2 2.3 1.18 3.2 0.15 3.5-1.3 3.8-2.75 3.8-5.25L3.8-5.25 3.8-34.55 10.2-34.55ZM26.05-35.25Q30.1-35.25 32.42-33.08 34.75-30.9 34.75-27.35L34.75-27.35Q34.75-24.5 33.3-22.35 31.85-20.2 29.05-18.1L29.05-18.1 35.15-10.7Q36.5-14.65 37.2-18.35L37.2-18.35 42.15-17.1Q40.65-11.45 38.45-7.45L38.45-7.45 43.4-2.15 38.45 0.75 34.9-3.65Q32.95-1.4 30.7-0.33 28.45 0.75 25.7 0.75L25.7 0.75Q22.85 0.75 20.6-0.45 18.35-1.65 17.1-3.83 15.85-6 15.85-8.8L15.85-8.8Q15.85-11.85 17.22-14.08 18.6-16.3 21.6-18.6L21.6-18.6Q19.3-21 18.4-22.88 17.5-24.75 17.5-27.25L17.5-27.25Q17.5-30.75 19.7-33 21.9-35.25 26.05-35.25L26.05-35.25ZM26.15-31.15Q23.35-31.15 23.35-27.25L23.35-27.25Q23.35-25.5 23.9-24.23 24.45-22.95 25.85-21.15L25.85-21.15Q27.5-22.7 28.2-24 28.9-25.3 28.9-27.2L28.9-27.2Q28.9-31.15 26.15-31.15L26.15-31.15ZM24.95-15.25Q23.5-13.95 22.87-12.48 22.25-11 22.25-9L22.25-9Q22.25-6.5 23.45-5.15 24.65-3.8 26.7-3.8L26.7-3.8Q28.25-3.8 29.5-4.53 30.75-5.25 31.9-6.7L31.9-6.7 24.95-15.25ZM54.45-34.55L54.45-5Q54.45 0.4 52.1 3.18 49.75 5.95 45.5 7.6L45.5 7.6 43.8 3.1Q45.65 2.2 46.55 1.18 47.45 0.15 47.75-1.3 48.05-2.75 48.05-5.25L48.05-5.25 48.05-34.55 54.45-34.55Z" opacity="1" transform="matrix(1,0,0,1,0,0)" fill="#000000" class="wordmark-text-0" data-fill-palette-color="quaternary" id="text-0"></path></svg></g></svg></g><g transform="matrix(1,0,0,1,0,107.14219757280003)"><svg viewBox="0 0 128.85884258452094 10.963245741633456" height="10.963245741633456" width="128.85884258452094"><g transform="matrix(1,0,0,1,0,0)"><svg width="128.85884258452094" viewBox="2 -39.65 474.8 40.4" height="10.963245741633456" data-palette-color="#ffffff"><path d="M29.05-34.55L31.25 0 25.2 0 24.6-14.6Q24.3-22.6 24.3-26L24.3-26 24.35-28.6 19.6-3.8 13.6-3.8 8.65-28.65Q8.7-27.15 8.7-24.05L8.7-24.05Q8.7-18.8 8.5-14.4L8.5-14.4 7.95 0 2 0 4.2-34.55 12.2-34.55 16.7-10.2 20.9-34.55 29.05-34.55ZM52.95-6.4Q52.95-5.1 53.3-4.48 53.65-3.85 54.45-3.45L54.45-3.45 53.2 0.65Q51.15 0.4 49.92-0.45 48.7-1.3 48.1-3.05L48.1-3.05Q45.8 0.75 41.65 0.75L41.65 0.75Q38.35 0.75 36.4-1.48 34.45-3.7 34.45-7.4L34.45-7.4Q34.45-11.7 37.12-13.95 39.8-16.2 44.9-16.2L44.9-16.2 46.95-16.2 46.95-18.05Q46.95-20.55 46.07-21.58 45.2-22.6 43.25-22.6L43.25-22.6Q40.9-22.6 37.4-21.3L37.4-21.3 36-25.3Q38-26.2 40.15-26.68 42.3-27.15 44.25-27.15L44.25-27.15Q52.95-27.15 52.95-18.35L52.95-18.35 52.95-6.4ZM43.3-3.7Q45.7-3.7 46.95-7L46.95-7 46.95-12.55 45.5-12.55Q42.95-12.55 41.77-11.4 40.6-10.25 40.6-7.85L40.6-7.85Q40.6-5.8 41.3-4.75 42-3.7 43.3-3.7L43.3-3.7ZM70.4-27.1Q71.55-27.1 72.45-26.75L72.45-26.75 71.45-20.85Q70.45-21.1 69.6-21.1L69.6-21.1Q67.7-21.1 66.6-19.45 65.5-17.8 64.9-14.55L64.9-14.55 64.9 0 58.75 0 58.75-26.45 64.1-26.45 64.55-21.85Q66.4-27.1 70.4-27.1L70.4-27.1ZM87.44-27.15Q91.29-27.15 93.34-23.65 95.39-20.15 95.39-13.25L95.39-13.25Q95.39-6.75 93.09-3 90.79 0.75 86.79 0.75L86.79 0.75Q85.04 0.75 83.59-0.13 82.14-1 81.09-2.55L81.09-2.55 80.74 0 75.29 0 75.29-37 81.44-37.65 81.44-23.6Q82.49-25.3 84.02-26.23 85.54-27.15 87.44-27.15L87.44-27.15ZM85.14-3.9Q86.99-3.9 88.02-6 89.04-8.1 89.04-13.25L89.04-13.25Q89.04-18.6 88.12-20.58 87.19-22.55 85.49-22.55L85.49-22.55Q84.34-22.55 83.29-21.6 82.24-20.65 81.44-19.1L81.44-19.1 81.44-6.7Q82.09-5.45 83.07-4.67 84.04-3.9 85.14-3.9L85.14-3.9ZM105.59 0.75Q102.89 0.75 101.32-0.93 99.74-2.6 99.74-5.4L99.74-5.4 99.74-37.05 105.89-37.7 105.89-5.65Q105.89-5 106.19-4.6 106.49-4.2 107.09-4.2L107.09-4.2Q107.44-4.2 107.77-4.3 108.09-4.4 108.19-4.4L108.19-4.4 109.39-0.2Q107.69 0.75 105.59 0.75L105.59 0.75ZM131.29-13.85Q131.29-13.4 131.14-11.3L131.14-11.3 117.49-11.3Q117.69-7.2 118.91-5.58 120.14-3.95 122.39-3.95L122.39-3.95Q123.94-3.95 125.19-4.48 126.44-5 127.89-6.15L127.89-6.15 130.44-2.65Q126.94 0.75 122.04 0.75L122.04 0.75Q116.84 0.75 114.06-2.85 111.29-6.45 111.29-13L111.29-13Q111.29-19.55 113.94-23.35 116.59-27.15 121.44-27.15L121.44-27.15Q126.09-27.15 128.69-23.78 131.29-20.4 131.29-13.85L131.29-13.85ZM125.29-15.3L125.29-15.65Q125.29-19.4 124.39-21.13 123.49-22.85 121.49-22.85L121.49-22.85Q119.64-22.85 118.66-21.18 117.69-19.5 117.49-15.3L117.49-15.3 125.29-15.3ZM140.54-23.2Q143.19-23.2 144.89-21.45 146.59-19.7 146.59-17.1L146.59-17.1Q146.59-14.45 144.89-12.7 143.19-10.95 140.54-10.95L140.54-10.95Q137.94-10.95 136.24-12.73 134.54-14.5 134.54-17.1L134.54-17.1Q134.54-19.75 136.24-21.48 137.94-23.2 140.54-23.2L140.54-23.2ZM163.63-35.25Q166.48-35.25 168.73-34.23 170.98-33.2 172.98-31.25L172.98-31.25 169.78-27.95Q168.23-29.3 166.88-29.88 165.53-30.45 163.83-30.45L163.83-30.45Q160.53-30.45 158.66-27.5 156.78-24.55 156.78-17.3L156.78-17.3Q156.78-12.2 157.46-9.33 158.13-6.45 159.46-5.3 160.78-4.15 162.93-4.15L162.93-4.15Q165.18-4.15 167.03-5.4L167.03-5.4 167.03-14.75 163.13-14.75 162.48-19.5 173.08-19.5 173.08-2.6Q170.93-1.05 168.31-0.18 165.68 0.7 162.98 0.7L162.98 0.7Q156.53 0.7 153.33-3.68 150.13-8.05 150.13-17.3L150.13-17.3Q150.13-23.3 151.91-27.33 153.68-31.35 156.73-33.3 159.78-35.25 163.63-35.25L163.63-35.25ZM189.78-27.1Q190.93-27.1 191.83-26.75L191.83-26.75 190.83-20.85Q189.83-21.1 188.98-21.1L188.98-21.1Q187.08-21.1 185.98-19.45 184.88-17.8 184.28-14.55L184.28-14.55 184.28 0 178.13 0 178.13-26.45 183.48-26.45 183.93-21.85Q185.78-27.1 189.78-27.1L189.78-27.1ZM211.58-6.4Q211.58-5.1 211.93-4.48 212.28-3.85 213.08-3.45L213.08-3.45 211.83 0.65Q209.78 0.4 208.55-0.45 207.33-1.3 206.73-3.05L206.73-3.05Q204.43 0.75 200.28 0.75L200.28 0.75Q196.98 0.75 195.03-1.48 193.08-3.7 193.08-7.4L193.08-7.4Q193.08-11.7 195.75-13.95 198.43-16.2 203.53-16.2L203.53-16.2 205.58-16.2 205.58-18.05Q205.58-20.55 204.7-21.58 203.83-22.6 201.88-22.6L201.88-22.6Q199.53-22.6 196.03-21.3L196.03-21.3 194.63-25.3Q196.63-26.2 198.78-26.68 200.93-27.15 202.88-27.15L202.88-27.15Q211.58-27.15 211.58-18.35L211.58-18.35 211.58-6.4ZM201.93-3.7Q204.33-3.7 205.58-7L205.58-7 205.58-12.55 204.13-12.55Q201.58-12.55 200.4-11.4 199.23-10.25 199.23-7.85L199.23-7.85Q199.23-5.8 199.93-4.75 200.63-3.7 201.93-3.7L201.93-3.7ZM229.73-27.15Q232.58-27.15 234.23-25.1 235.88-23.05 235.88-19.6L235.88-19.6 235.88 0 229.73 0 229.73-18.9Q229.73-20.8 229.2-21.63 228.68-22.45 227.68-22.45L227.68-22.45Q225.58-22.45 223.53-18.5L223.53-18.5 223.53 0 217.38 0 217.38-26.45 222.73-26.45 223.18-23Q224.53-25.1 226.05-26.13 227.58-27.15 229.73-27.15L229.73-27.15ZM241.42-26.45L247.57-26.45 247.57 0 241.42 0 241.42-26.45ZM244.47-39.65Q246.12-39.65 247.15-38.6 248.17-37.55 248.17-35.9L248.17-35.9Q248.17-34.3 247.15-33.25 246.12-32.2 244.47-32.2L244.47-32.2Q242.82-32.2 241.8-33.25 240.77-34.3 240.77-35.9L240.77-35.9Q240.77-37.55 241.8-38.6 242.82-39.65 244.47-39.65L244.47-39.65ZM264.42-5L266.57-1.2Q264.12 0.75 260.82 0.75L260.82 0.75Q257.37 0.75 255.57-1.23 253.77-3.2 253.77-6.6L253.77-6.6 253.77-22 250.67-22 250.67-26.45 253.77-26.45 253.77-32.3 259.92-33.05 259.92-26.45 264.92-26.45 264.32-22 259.92-22 259.92-6.6Q259.92-4.2 261.97-4.2L261.97-4.2Q262.62-4.2 263.12-4.38 263.62-4.55 264.42-5L264.42-5ZM287.97-13.85Q287.97-13.4 287.82-11.3L287.82-11.3 274.17-11.3Q274.37-7.2 275.59-5.58 276.82-3.95 279.07-3.95L279.07-3.95Q280.62-3.95 281.87-4.48 283.12-5 284.57-6.15L284.57-6.15 287.12-2.65Q283.62 0.75 278.72 0.75L278.72 0.75Q273.52 0.75 270.74-2.85 267.97-6.45 267.97-13L267.97-13Q267.97-19.55 270.62-23.35 273.27-27.15 278.12-27.15L278.12-27.15Q282.77-27.15 285.37-23.78 287.97-20.4 287.97-13.85L287.97-13.85ZM281.97-15.3L281.97-15.65Q281.97-19.4 281.07-21.13 280.17-22.85 278.17-22.85L278.17-22.85Q276.32-22.85 275.34-21.18 274.37-19.5 274.17-15.3L274.17-15.3 281.97-15.3ZM297.22-23.2Q299.87-23.2 301.56-21.45 303.27-19.7 303.27-17.1L303.27-17.1Q303.27-14.45 301.56-12.7 299.87-10.95 297.22-10.95L297.22-10.95Q294.62-10.95 292.92-12.73 291.22-14.5 291.22-17.1L291.22-17.1Q291.22-19.75 292.92-21.48 294.62-23.2 297.22-23.2L297.22-23.2ZM319.56-35.25Q322.21-35.25 324.24-34.38 326.26-33.5 328.16-31.7L328.16-31.7 325.11-28.05Q323.81-29.25 322.59-29.83 321.36-30.4 319.91-30.4L319.91-30.4Q316.91-30.4 315.21-27.4 313.51-24.4 313.51-17.35L313.51-17.35Q313.51-10.4 315.21-7.38 316.91-4.35 320.01-4.35L320.01-4.35Q321.56-4.35 322.71-4.98 323.86-5.6 325.41-6.9L325.41-6.9 328.46-3.4Q326.86-1.6 324.61-0.43 322.36 0.75 319.56 0.75L319.56 0.75Q313.71 0.75 310.26-3.8 306.81-8.35 306.81-17.35L306.81-17.35Q306.81-23.3 308.46-27.3 310.11-31.3 312.99-33.27 315.86-35.25 319.56-35.25L319.56-35.25ZM350.56-13.85Q350.56-13.4 350.41-11.3L350.41-11.3 336.76-11.3Q336.96-7.2 338.19-5.58 339.41-3.95 341.66-3.95L341.66-3.95Q343.21-3.95 344.46-4.48 345.71-5 347.16-6.15L347.16-6.15 349.71-2.65Q346.21 0.75 341.31 0.75L341.31 0.75Q336.11 0.75 333.34-2.85 330.56-6.45 330.56-13L330.56-13Q330.56-19.55 333.21-23.35 335.86-27.15 340.71-27.15L340.71-27.15Q345.36-27.15 347.96-23.78 350.56-20.4 350.56-13.85L350.56-13.85ZM344.56-15.3L344.56-15.65Q344.56-19.4 343.66-21.13 342.76-22.85 340.76-22.85L340.76-22.85Q338.91-22.85 337.94-21.18 336.96-19.5 336.76-15.3L336.76-15.3 344.56-15.3ZM366.51-27.1Q367.66-27.1 368.56-26.75L368.56-26.75 367.56-20.85Q366.56-21.1 365.71-21.1L365.71-21.1Q363.81-21.1 362.71-19.45 361.61-17.8 361.01-14.55L361.01-14.55 361.01 0 354.86 0 354.86-26.45 360.21-26.45 360.66-21.85Q362.51-27.1 366.51-27.1L366.51-27.1ZM388.31-6.4Q388.31-5.1 388.66-4.48 389-3.85 389.81-3.45L389.81-3.45 388.56 0.65Q386.5 0.4 385.28-0.45 384.06-1.3 383.45-3.05L383.45-3.05Q381.16 0.75 377 0.75L377 0.75Q373.7 0.75 371.75-1.48 369.81-3.7 369.81-7.4L369.81-7.4Q369.81-11.7 372.48-13.95 375.16-16.2 380.25-16.2L380.25-16.2 382.31-16.2 382.31-18.05Q382.31-20.55 381.43-21.58 380.56-22.6 378.61-22.6L378.61-22.6Q376.25-22.6 372.75-21.3L372.75-21.3 371.36-25.3Q373.36-26.2 375.5-26.68 377.66-27.15 379.61-27.15L379.61-27.15Q388.31-27.15 388.31-18.35L388.31-18.35 388.31-6.4ZM378.66-3.7Q381.06-3.7 382.31-7L382.31-7 382.31-12.55 380.86-12.55Q378.31-12.55 377.13-11.4 375.95-10.25 375.95-7.85L375.95-7.85Q375.95-5.8 376.66-4.75 377.36-3.7 378.66-3.7L378.66-3.7ZM417.75-27.15Q420.4-27.15 422-25.1 423.6-23.05 423.6-19.6L423.6-19.6 423.6 0 417.55 0 417.55-18.95Q417.55-20.85 417.05-21.68 416.55-22.5 415.6-22.5L415.6-22.5Q413.65-22.5 411.85-18.8L411.85-18.8 411.85 0 405.85 0 405.85-18.95Q405.85-22.5 403.95-22.5L403.95-22.5Q401.9-22.5 400.15-18.8L400.15-18.8 400.15 0 394.1 0 394.1-26.45 399.45-26.45 399.85-23.05Q402.45-27.15 406.1-27.15L406.1-27.15Q407.95-27.15 409.3-26 410.65-24.85 411.35-22.75L411.35-22.75Q414-27.15 417.75-27.15L417.75-27.15ZM429.1-26.45L435.25-26.45 435.25 0 429.1 0 429.1-26.45ZM432.15-39.65Q433.8-39.65 434.82-38.6 435.85-37.55 435.85-35.9L435.85-35.9Q435.85-34.3 434.82-33.25 433.8-32.2 432.15-32.2L432.15-32.2Q430.5-32.2 429.48-33.25 428.45-34.3 428.45-35.9L428.45-35.9Q428.45-37.55 429.48-38.6 430.5-39.65 432.15-39.65L432.15-39.65ZM450.45-27.15Q452.6-27.15 454.35-26.43 456.1-25.7 457.7-24.15L457.7-24.15 455.05-20.65Q453.95-21.55 452.97-21.98 452-22.4 450.85-22.4L450.85-22.4Q448.6-22.4 447.45-20.28 446.3-18.15 446.3-13.1L446.3-13.1Q446.3-8.2 447.47-6.2 448.65-4.2 450.85-4.2L450.85-4.2Q451.95-4.2 452.85-4.6 453.75-5 454.95-5.85L454.95-5.85 457.7-2.3Q454.5 0.75 450.55 0.75L450.55 0.75Q445.45 0.75 442.62-2.73 439.8-6.2 439.8-13L439.8-13Q439.8-17.4 441.1-20.6 442.4-23.8 444.82-25.48 447.25-27.15 450.45-27.15L450.45-27.15ZM468.1-27.15Q472.8-27.15 476.05-24.05L476.05-24.05 473.7-20.7Q472.3-21.7 471.05-22.2 469.8-22.7 468.5-22.7L468.5-22.7Q467.05-22.7 466.22-21.93 465.4-21.15 465.4-19.8L465.4-19.8Q465.4-18.45 466.32-17.63 467.25-16.8 470.05-15.7L470.05-15.7Q473.5-14.35 475.15-12.5 476.8-10.65 476.8-7.55L476.8-7.55Q476.8-3.7 474.1-1.48 471.4 0.75 467.25 0.75L467.25 0.75Q464.55 0.75 462.27-0.23 460-1.2 458.3-2.95L458.3-2.95 461.3-6.25Q464.1-3.8 467-3.8L467-3.8Q468.65-3.8 469.6-4.67 470.55-5.55 470.55-7.1L470.55-7.1Q470.55-8.25 470.15-8.97 469.75-9.7 468.75-10.33 467.75-10.95 465.75-11.7L465.75-11.7Q462.3-13.05 460.82-14.85 459.35-16.65 459.35-19.45L459.35-19.45Q459.35-22.8 461.72-24.98 464.1-27.15 468.1-27.15L468.1-27.15Z" opacity="1" transform="matrix(1,0,0,1,0,0)" fill="#000000" class="slogan-text-1" data-fill-palette-color="quaternary" id="text-1"></path></svg></g></svg></g></svg></g></svg></g><g></g></svg></g><defs></defs></svg><rect width="168.25832258452095" height="157.50492331443348" fill="none" stroke="none" visibility="hidden"></rect></g></svg></g></svg>